<?xml version="1.0" standalone="no"?><!DOCTYPE svg PUBLIC "-//W3C//DTD SVG 1.1//EN" "http://www.w3.org/Graphics/SVG/1.1/DTD/svg11.dtd"><svg t="1675480925609" class="icon" viewBox="0 0 1024 1024" version="1.1" xmlns="http://www.w3.org/2000/svg" p-id="2769" xmlns:xlink="http://www.w3.org/1999/xlink" width="200" height="200"><path d="M468.004571 103.990857a83.309714 83.309714 0 0 1 90.715429 1.792l3.474286 2.486857 16.786285 12.818286C789.101714 283.428571 896 427.702857 896 557.970286 896 764.946286 724.041143 932.571429 511.981714 932.571429 300.013714 932.571429 128 764.982857 128 557.970286c0-131.748571 109.385143-277.906286 324.534857-442.624l9.417143-7.168v-0.036572l6.034286-4.150857zM687.542857 493.714286h-43.117714a7.314286 7.314286 0 0 0-7.168 5.851428l-0.146286 1.462857v32.310858c-1.755429 74.752-64.694857 138.733714-134.729143 138.660571-37.906286 0.073143-65.572571-7.186286-94.921143-29.805714l-4.662857-3.693715-29.988571-22.125714a7.314286 7.314286 0 0 0-8.448-0.146286l-1.170286 0.987429-31.908571 33.316571-0.969143 1.371429a7.314286 7.314286 0 0 0 0.585143 8.027429l1.024 1.060571 35.712 30.811429C409.6 716.708571 451.748571 731.428571 502.381714 731.428571c101.449143 0 189.677714-90.258286 192.402286-212.077714l0.073143-5.833143V501.028571a7.314286 7.314286 0 0 0-5.851429-7.168L687.542857 493.714286z" fill="#00AAFF" p-id="2770"></path></svg>